<svg width="76" height="83" viewBox="0 0 76 83" fill="none" xmlns="http://www.w3.org/2000/svg">
    <path fill-rule="evenodd" clip-rule="evenodd" d="M73.3741 29.2449C73.9853 30.2772 75.4409 33.0301 75.8758 36.487C76.3694 40.4046 75.6171 45.9281 69.4452 50.4101C70.1605 54.6 69.4834 61.8125 62.7398 65.3591C63.0193 66.8829 63.2057 69.5271 61.8342 71.7868C60.7567 73.5648 58.9753 74.7337 56.5347 75.2681C55.2945 77.1671 50.9922 83.0767 45.6528 82.9992C42.8121 82.9587 40.2445 81.2912 37.9993 78.0375C35.755 81.292 33.1874 82.9587 30.3459 82.9992C30.3123 83 30.2779 83 30.2444 83C24.944 83 20.6966 77.1553 19.4644 75.2681C17.0238 74.7337 15.2429 73.5644 14.1649 71.7868C12.7938 69.5271 12.9794 66.8833 13.2593 65.3591C6.51652 61.8125 5.83948 54.6 6.55475 50.4101C0.383227 45.9281 -0.368569 40.4041 0.123709 36.487C0.559495 33.0301 2.01424 30.2764 2.62545 29.2449C2.18329 22.0526 3.61935 16.637 6.89794 13.143C9.45319 10.4192 12.4383 9.64867 13.9542 9.43159C16.2652 4.58163 20.1937 3.64249 22.585 3.87137C27.0575 -0.263274 31.1945 -0.361909 33.921 0.314202C35.7185 0.760166 37.1269 1.59519 37.9998 2.2262C38.873 1.59603 40.2806 0.760166 42.0786 0.314202C44.805 -0.360645 48.942 -0.262431 53.4145 3.87137C55.8033 3.64333 59.7334 4.58163 62.0453 9.43159C63.5612 9.64909 66.5463 10.4196 69.1016 13.143C72.3793 16.637 73.8162 22.0526 73.3741 29.2449ZM66.4249 50.1239C66.2762 49.5338 66.5174 48.915 67.0271 48.5778C71.5889 45.5597 73.5975 41.6118 72.9973 36.8449C72.5369 33.1912 70.708 30.4336 70.6893 30.4062C70.5109 30.1407 70.4268 29.8233 70.4493 29.5054C70.9212 22.9458 69.768 18.1161 67.0212 15.1499C64.3797 12.2979 61.1827 12.2254 61.048 12.2233C60.4623 12.2161 59.9288 11.8587 59.7114 11.3191C57.5664 5.99792 53.7 6.70775 53.2672 6.80639C52.7783 6.91598 52.2563 6.77477 51.9042 6.42449C48.9178 3.4604 45.8477 2.34549 42.7815 3.1059C40.5249 3.66567 39.0663 5.06637 39.0518 5.0807C38.78 5.35047 38.4113 5.50222 38.0269 5.50222H37.9717C37.5878 5.50222 37.2187 5.35047 36.9468 5.0807C36.9366 5.07059 35.4267 3.62099 33.1076 3.08019C30.077 2.37373 27.0448 3.49791 24.0945 6.42449C23.7343 6.78236 23.2123 6.92526 22.7179 6.80302C22.6164 6.77941 22.3089 6.71956 21.8727 6.71956C20.5169 6.71956 17.9098 7.2945 16.2873 11.3187C16.0669 11.8646 15.5342 12.2229 14.9413 12.2229C14.816 12.2246 11.619 12.2979 8.97748 15.1494C6.23024 18.1157 5.07664 22.945 5.54938 29.505C5.57189 29.8233 5.48779 30.1402 5.3094 30.4058C5.01378 30.8496 -1.84413 41.4217 8.97153 48.5773C9.48123 48.915 9.72248 49.5338 9.57382 50.1235C9.47783 50.5121 7.30102 59.7496 15.5113 63.2414C16.2049 63.5365 16.5536 64.3092 16.3158 65.019C16.3068 65.046 15.3185 68.1298 16.6543 70.3153C17.3713 71.488 18.6982 72.2425 20.5972 72.5569C21.0211 72.6269 21.3931 72.8815 21.6106 73.2499C22.7511 75.1813 26.5529 80.1826 30.3081 80.1227C32.5647 80.0882 34.7148 78.2407 36.6979 74.6316C36.9523 74.1692 37.4399 73.8822 37.9709 73.8822C38.5018 73.8822 39.0446 74.1697 39.299 74.6316C41.283 78.2407 43.4331 80.0882 45.6889 80.1227H45.7534C49.5044 80.1227 53.2527 75.1699 54.3864 73.2499C54.6038 72.8815 54.975 72.6269 55.3998 72.5569C57.3048 72.2421 58.6346 71.4838 59.3499 70.3039C60.6696 68.1302 59.6922 65.0502 59.6821 65.0194C59.4433 64.3096 59.7929 63.5369 60.4865 63.2419C68.7401 59.7319 66.5234 50.515 66.4249 50.1239Z" fill="#2A4883"/>
    <path d="M62.9256 9.9612C62.6727 9.22454 61.8521 8.82759 61.0963 9.07219C52.1038 11.9859 52 19.2903 52 19.5996C52 20.372 52.6414 20.9951 53.4357 21C53.4395 21 53.4429 21 53.4459 21C54.236 21 54.8812 20.3774 54.8918 19.609C54.8956 19.3805 55.0515 13.9933 62.0106 11.7388C62.7684 11.4934 63.1777 10.6979 62.9256 9.9612Z" fill="#2A4883"/>
    <path d="M68.7113 48.4587C68.239 47.8468 67.3552 47.7279 66.7346 48.1953C64.4364 49.9265 62.358 50.5433 60.5614 50.0315C57.3604 49.1201 55.7476 44.9518 55.7324 44.9093C55.4617 44.1883 54.6498 43.8195 53.9221 44.0874C53.1916 44.3538 52.8176 45.1561 53.0879 45.8783C53.1718 46.1029 55.1952 51.393 59.7639 52.7063C60.4453 52.9024 61.1399 53 61.8464 53C63.9492 53 66.1607 52.1348 68.4448 50.413C69.0642 49.9465 69.1832 49.0707 68.7113 48.4587Z" fill="#2A4883"/>
    <path d="M44.4349 50.4327C43.8786 49.8558 42.9741 49.8558 42.4178 50.4327C41.8607 51.0097 41.8607 51.9451 42.4178 52.5217C47.0499 57.319 46.0891 61.9539 46.0398 62.1734C45.8542 62.9625 46.3185 63.7585 47.0796 63.9558C47.195 63.9853 47.3116 64 47.4261 64C48.0651 64 48.6473 63.5516 48.8091 62.8802C48.8722 62.6218 50.2711 56.4771 44.4349 50.4327Z" fill="#2A4883"/>
    <path d="M66.912 37.2515C66.6378 36.4909 65.802 36.0973 65.0461 36.3713C64.751 36.4776 57.8003 38.9258 54.1086 33.9764C52.191 31.406 51.3672 29.2047 50.7048 27.4362C49.8921 25.2667 49.1255 23.2168 46.5771 23.0052C45.7819 22.9376 45.0704 23.5395 45.005 24.3478C44.9388 25.1553 45.5354 25.8647 46.3379 25.9314C46.9482 25.9813 47.1776 26.3379 47.9766 28.4717C48.6664 30.3125 49.6102 32.8334 51.7776 35.7394C54.3179 39.1448 57.8618 40 60.7839 40C63.6128 40 65.8584 39.1977 66.0433 39.1306C66.7984 38.8531 67.1862 38.0125 66.912 37.2515Z" fill="#2A4883"/>
    <path d="M38.5 3C37.672 3 37 3.64334 37 4.43605V75.5639C37 76.3567 37.672 77 38.5 77C39.328 77 40 76.3575 40 75.5644V4.43605C40 3.64334 39.328 3 38.5 3Z" fill="#2A4883"/>
    <path d="M48.9992 15.4537C48.9872 14.6398 48.3238 13.9793 47.4614 14.0005C46.6239 14.0122 45.9556 14.6826 45.9676 15.4964C45.9689 15.5884 46.0515 24.7817 41.3257 30.612C40.8075 31.2518 40.9194 32.1788 41.5775 32.6829C41.8555 32.8968 42.1859 33 42.5149 33C42.963 33 43.4071 32.8078 43.7055 32.4384C49.0907 25.7955 49.005 15.8731 48.9992 15.4537Z" fill="#2A4883"/>
    <path d="M51.5537 59C45.1798 59 42.1983 67.7253 42.0746 68.0973C41.8222 68.8544 42.231 69.6712 42.988 69.925C43.1396 69.9763 43.2947 70 43.4463 70C44.0509 70 44.6147 69.6183 44.8181 69.0128C45.484 67.0321 47.9927 61.892 51.5542 61.892C52.3523 61.892 53 61.2442 53 60.446C53 59.6478 52.3518 59 51.5537 59Z" fill="#2A4883"/>
    <path d="M52.4502 3.3029C51.8472 2.79813 50.992 2.93857 50.5421 3.61742L47.2697 8.55425C46.8201 9.23175 46.9456 10.1915 47.5498 10.6967C47.7939 10.9017 48.0789 11 48.3626 11C48.7794 11 49.1906 10.7873 49.4579 10.3822L52.7303 5.44534C53.1799 4.76784 53.0544 3.80856 52.4502 3.3029Z" fill="#2A4883"/>
    <path fill-rule="evenodd" clip-rule="evenodd" d="M18 19C18 15.6917 20.6917 13 24 13C27.3083 13 30 15.6917 30 19C30 22.3083 27.3083 25 24 25C20.6917 25 18 22.3083 18 19ZM20.9998 19C20.9998 20.6546 22.3454 22.0002 24 22.0002C25.6541 22.0002 26.9998 20.6546 27.0002 19C27.0002 17.3454 25.6546 15.9998 24 15.9998C22.3454 15.9998 20.9998 17.3454 20.9998 19Z" fill="#2A4883"/>
    <path fill-rule="evenodd" clip-rule="evenodd" d="M8 38C8 34.6917 10.6917 32 14 32C17.3083 32 20.0004 34.6917 20 38C20 41.3083 17.3083 44 14 44C10.6917 44 8 41.3083 8 38ZM10.9998 38C10.9998 39.6546 12.3454 41.0002 14 41.0002C15.6546 41.0002 17.0002 39.6546 17.0002 38C17.0002 36.3454 15.6546 34.9998 14 34.9998C12.3454 34.9998 10.9998 36.3454 10.9998 38Z" fill="#2A4883"/>
    <path fill-rule="evenodd" clip-rule="evenodd" d="M22 51C22 47.6917 24.6917 45 28 45C31.3083 45 34 47.6917 34 51C34 54.3083 31.3083 57 28 57C24.6917 57 22 54.3083 22 51ZM24.9998 51C24.9998 52.6546 26.3454 54.0002 28 54.0002C29.6541 54.0002 31.0002 52.6546 31.0002 51C31.0002 49.3454 29.6546 47.9998 28 47.9998C26.3454 47.9998 24.9998 49.3454 24.9998 51Z" fill="#2A4883"/>
    <path fill-rule="evenodd" clip-rule="evenodd" d="M22 66C22 62.6917 24.6917 60 28 60C31.3083 60 34 62.6917 34 66C34 69.3083 31.3083 72 28 72C24.6917 72 22 69.3083 22 66ZM24.9998 66C24.9998 67.6546 26.3454 69.0002 28 69.0002C29.6541 69.0002 30.9998 67.6546 31.0002 66C31.0002 64.3454 29.6546 62.9998 28 62.9998C26.3454 62.9998 24.9998 64.3454 24.9998 66Z" fill="#2A4883"/>
    <path d="M23.5 22C22.672 22 22 22.6346 22 23.4166V37.5834C22 38.3654 22.672 39 23.5 39C24.3289 39 25 38.3662 25 37.5834V23.4166C25 22.6346 24.328 22 23.5 22Z" fill="#2A4883"/>
    <path d="M28.5561 36H18.4444C17.6471 36 17 36.672 17 37.5C17 38.328 17.6471 39 18.4444 39H28.5556C29.3538 39 30 38.328 30 37.5C30.0004 36.672 29.3534 36 28.5561 36Z" fill="#2A4883"/>
    <path d="M28.5 36C27.672 36 27 36.6719 27 37.4999V46.5001C27 47.3281 27.672 48 28.5 48C29.3289 48 30 47.3289 30 46.5001V37.4999C30 36.6719 29.328 36 28.5 36Z" fill="#2A4883"/>
    <path d="M28.5 53C27.672 53 27 53.6399 27 54.4285V61.5715C27 62.3601 27.672 63 28.5 63C29.3289 63 30 62.3609 30 61.5715V54.4285C30 53.6399 29.328 53 28.5 53Z" fill="#2A4883"/>
</svg>
