<svg width="92" height="92" viewBox="0 0 92 92" fill="none" xmlns="http://www.w3.org/2000/svg">
    <path fill-rule="evenodd" clip-rule="evenodd" d="M39.249 55.7705V79.0716C42.0321 79.7298 44.1096 82.2269 44.1096 85.2002C44.1096 88.674 41.2751 91.5 37.7908 91.5C34.3066 91.5 31.4721 88.674 31.4721 85.2002C31.4721 82.2269 33.5495 79.7298 36.3327 79.0716V57.2243H28.0697C27.2642 57.2243 26.6115 56.5736 26.6115 55.7705C26.6115 54.9674 27.2642 54.3167 28.0697 54.3167H37.7908C38.5963 54.3167 39.249 54.9674 39.249 55.7705ZM34.3884 85.2002C34.3884 87.0706 35.9148 88.5924 37.7908 88.5924C39.6668 88.5924 41.1932 87.0706 41.1932 85.2002C41.1932 83.3298 39.6668 81.808 37.7908 81.808C35.9148 81.808 34.3884 83.3298 34.3884 85.2002Z" fill="#2A4883"/>
    <path fill-rule="evenodd" clip-rule="evenodd" d="M54.9243 55.7705V79.0716C57.7074 79.7298 59.7849 82.2269 59.7849 85.2002C59.7849 88.674 56.9504 91.5 53.4661 91.5C49.9818 91.5 47.1473 88.674 47.1473 85.2002C47.1473 82.2269 49.2247 79.7298 52.0079 79.0716V57.2243H43.745C42.9395 57.2243 42.2869 56.5736 42.2869 55.7705C42.2869 54.9674 42.9395 54.3167 43.745 54.3167H53.4661C54.2716 54.3167 54.9243 54.9674 54.9243 55.7705ZM50.0636 85.2002C50.0636 87.0706 51.5901 88.5924 53.4661 88.5924C55.3421 88.5924 56.8685 87.0706 56.8685 85.2002C56.8685 83.3298 55.3421 81.808 53.4661 81.808C51.5901 81.808 50.0636 83.3298 50.0636 85.2002Z" fill="#2A4883"/>
    <path fill-rule="evenodd" clip-rule="evenodd" d="M73.6198 74.208C74.2772 71.4116 76.771 69.3243 79.7404 69.3243C83.2096 69.3243 86.0319 72.1723 86.0319 75.6731C86.0319 79.1739 83.2096 82.0219 79.7404 82.0219C76.771 82.0219 74.2772 79.9346 73.6198 77.1382H69.0933C68.2912 77.1382 67.6414 76.4824 67.6414 75.6731V57.2469H59.414C58.612 57.2469 57.9622 56.5911 57.9622 55.7818C57.9622 54.9725 58.612 54.3167 59.414 54.3167H69.0933C69.8953 54.3167 70.5451 54.9725 70.5451 55.7818V74.208H73.6198ZM76.3527 75.6731C76.3527 77.558 77.8725 79.0917 79.7404 79.0917C81.6083 79.0917 83.1281 77.558 83.1281 75.6731C83.1281 73.7882 81.6083 72.2545 79.7404 72.2545C77.8725 72.2545 76.3527 73.7882 76.3527 75.6731Z" fill="#2A4883"/>
    <path fill-rule="evenodd" clip-rule="evenodd" d="M80.4086 26.2402C83.3826 27.1625 86.0554 28.9703 88.0232 31.4103C90.2651 34.1899 91.5 37.6905 91.5 41.2669C91.5 49.942 84.4329 56.9998 75.7464 56.9998H74.9521C74.1456 56.9998 73.492 56.3471 73.492 55.5416C73.492 54.7361 74.1456 54.0834 74.9521 54.0834H75.7466C82.8231 54.0834 88.58 48.334 88.58 41.2669C88.58 35.2686 84.4971 30.1355 78.6513 28.7844C77.994 28.6326 77.5264 28.0509 77.5204 27.377C77.3985 13.8891 66.3102 2.91633 52.8025 2.91633C43.8069 2.91633 35.5115 7.80644 31.1538 15.6786C30.7901 16.3356 29.9863 16.6097 29.296 16.3113C28.0782 15.785 26.7842 15.518 25.4498 15.518C20.5996 15.518 16.4681 19.135 15.8394 23.9316C15.7582 24.5518 15.2898 25.0511 14.6756 25.1726C7.86413 26.5217 2.92021 32.542 2.92021 39.4874C2.92021 47.5357 9.47667 54.0834 17.5355 54.0834H22.3883C23.1949 54.0834 23.8484 54.7361 23.8484 55.5416V75.3386C23.8484 76.1441 23.1949 76.7968 22.3883 76.7968H17.8361C17.1749 79.58 14.6671 81.6574 11.6809 81.6574C8.19198 81.6574 5.35372 78.8229 5.35372 75.3386C5.35372 71.8544 8.19198 69.0199 11.6809 69.0199C14.6671 69.0199 17.1749 71.0973 17.8361 73.8805H20.9282V56.9998H17.5355C7.86627 56.9998 0 49.1437 0 39.4874C0 31.4941 5.45963 24.5219 13.1195 22.5374C14.3563 16.8061 19.4854 12.6015 25.4498 12.6015C26.7462 12.6015 28.0138 12.7953 29.2333 13.1793C34.2483 5.01843 43.1656 0 52.8025 0C60.1412 0 67.0524 2.84187 72.2632 8.00223C77.2061 12.8974 80.0738 19.3376 80.4086 26.2402ZM8.27394 75.3386C8.27394 77.2146 9.80238 78.741 11.6809 78.741C13.5593 78.741 15.0878 77.2146 15.0878 75.3386C15.0878 73.4627 13.5593 71.9363 11.6809 71.9363C9.80238 71.9363 8.27394 73.4627 8.27394 75.3386Z" fill="#2A4883"/>
    <path d="M71.1396 29.1633H71.1525C71.9279 29.1559 72.5507 28.4907 72.5438 27.6774C72.5228 25.2518 72.0863 22.8782 71.2463 20.6226C70.964 19.8651 70.15 19.4906 69.4276 19.7865C68.7052 20.0824 68.3484 20.9363 68.6305 21.694C69.346 23.615 69.7178 25.6372 69.7355 27.7041C69.7428 28.513 70.37 29.1633 71.1396 29.1633Z" fill="#2A4883"/>
    <path d="M65.943 16.6117C66.2323 16.9557 66.6503 17.1335 67.0717 17.1335C67.4 17.1335 67.73 17.0256 68.0026 16.8044C68.6254 16.2991 68.7134 15.3936 68.1988 14.7818C64.3891 10.2529 58.7994 7.6554 52.8634 7.6554C52.0552 7.6554 51.4004 8.29844 51.4004 9.09205C51.4004 9.88566 52.0552 10.5287 52.8634 10.5287C57.9235 10.5287 62.6908 12.7457 65.943 16.6117Z" fill="#2A4883"/>
</svg>
