<svg width="22" height="27" viewBox="0 0 22 27" fill="none" xmlns="http://www.w3.org/2000/svg">
    <path fill-rule="evenodd" clip-rule="evenodd" d="M18.6693 5.36657H17.907V3.35307C17.907 2.24304 17.3626 1.20667 16.4509 0.581863C15.5397 -0.0429463 14.3824 -0.173265 13.356 0.233144L0.32386 5.40211C0.322839 5.40263 0.321946 5.40327 0.321052 5.40391L0.321047 5.40391C0.320151 5.40456 0.319256 5.4052 0.318233 5.40572C0.308268 5.40985 0.299814 5.41584 0.291333 5.42185C0.285008 5.42633 0.278668 5.43082 0.271674 5.43456C0.231767 5.4562 0.193395 5.47886 0.161674 5.50925C0.151251 5.51909 0.143109 5.53039 0.134871 5.54182L0.134867 5.54183C0.130167 5.54835 0.125436 5.55491 0.120233 5.56128C0.0951628 5.5927 0.0716279 5.6236 0.0542326 5.65966C0.0469405 5.67508 0.0419869 5.69128 0.0369646 5.70771L0.0369632 5.70771L0.0369622 5.70771C0.0349378 5.71433 0.0329022 5.72099 0.0306977 5.72765C0.0184186 5.76577 0.0102326 5.80388 0.00716279 5.84458C0.00669331 5.85049 0.00514684 5.85596 0.00361047 5.8614C0.00179821 5.86781 0 5.87418 0 5.88115V24.0485C0 25.6762 1.3154 27 2.93214 27H18.6693C20.5055 27 22 25.4959 22 23.6467V8.71932C22 6.87013 20.5055 5.36657 18.6693 5.36657ZM13.7311 1.19225C14.4525 0.905857 15.2337 0.993938 15.8748 1.43331C16.5159 1.8732 16.8837 2.5727 16.8837 3.35358V5.36657H3.20586L13.7311 1.19225ZM18.6693 25.9703C19.9417 25.9703 20.9767 24.9278 20.9767 23.6473V8.71983C20.9767 7.43879 19.9417 6.39676 18.6693 6.39676H17.3953H1.02326V24.049C1.02326 25.1081 1.87972 25.9703 2.93214 25.9703H18.6693Z" fill="black"/>
    <path fill-rule="evenodd" clip-rule="evenodd" d="M13.6617 12.3136L18.5455 12.9658C18.7461 12.9922 18.9126 13.1211 18.9738 13.2985C19.0366 13.4748 18.9845 13.6688 18.8392 13.7987L15.3056 16.9619L16.1398 21.4284C16.1738 21.6116 16.0919 21.7967 15.928 21.9062C15.8355 21.9682 15.7253 21.9995 15.6152 21.9995C15.5306 21.9995 15.4455 21.9809 15.3678 21.9433L11 19.8348L6.63217 21.9433C6.45341 22.0307 6.23635 22.0161 6.07196 21.9062C5.9081 21.7967 5.82617 21.6116 5.86022 21.4284L6.69442 16.9619L3.16078 13.7987C3.01554 13.6693 2.96341 13.4748 3.02618 13.2985C3.08896 13.1211 3.25548 12.9927 3.45552 12.9658L8.3394 12.3136L10.5233 8.25061C10.7031 7.91646 11.2979 7.91646 11.4777 8.25061L13.6617 12.3136ZM14.2107 16.8734C14.1814 16.7152 14.2384 16.553 14.3639 16.4411L17.3272 13.7899L13.2334 13.2433C13.06 13.2203 12.9105 13.1202 12.8328 12.976L11.0021 9.5701L9.17147 12.976C9.0938 13.1202 8.9443 13.2203 8.77086 13.2433L4.67702 13.7899L7.63927 16.4411C7.76483 16.5535 7.82175 16.7152 7.79249 16.8734L7.09289 20.6174L10.7542 18.85C10.8314 18.8124 10.917 18.7938 11.0016 18.7938C11.0862 18.7938 11.1713 18.8124 11.249 18.85L14.9103 20.6174L14.2107 16.8734Z" fill="black"/>
</svg>
