<svg width="63" height="86" viewBox="0 0 63 86" fill="none" xmlns="http://www.w3.org/2000/svg">
    <path d="M63 25.6154C62.993 19.3311 57.8684 14.2377 51.5455 14.2308H47.1857C46.4446 6.17037 39.6442 0 31.5 0C23.3558 0 16.5554 6.17037 15.8143 14.2308H11.4545C5.12812 14.2308 0 19.3276 0 25.6154C0 31.9032 5.12812 37 11.4545 37H27.2045V34.1538H11.4545C6.71025 34.1538 2.86364 30.3307 2.86364 25.6154C2.86364 20.9001 6.71025 17.0769 11.4545 17.0769H18.6136V15.6538C18.6136 8.58015 24.3829 2.84615 31.5 2.84615C38.6171 2.84615 44.3864 8.58015 44.3864 15.6538V17.0769H51.5455C56.2898 17.0769 60.1364 20.9001 60.1364 25.6154C60.1364 30.3307 56.2898 34.1538 51.5455 34.1538H35.7955V37H51.5455C57.8684 36.993 62.993 31.8997 63 25.6154Z" fill="#2A4883"/>
    <path fill-rule="evenodd" clip-rule="evenodd" d="M57 81.7062V57.3745C56.9972 55.004 55.0852 53.0835 52.725 53.0807H49.875V49.9547C51.7502 49.2921 52.9212 47.4164 52.6979 45.4323C52.4745 43.4482 50.9152 41.8821 48.9398 41.6577C46.9645 41.4334 45.0969 42.6096 44.4373 44.493H32.775V26.4791L36.0425 29.761L38.0575 27.7371L31.35 21L24.6425 27.7371L26.6575 29.761L29.925 26.4791V44.493H18.2627C17.6031 42.6096 15.7355 41.4327 13.7602 41.6577C11.7848 41.8821 10.2255 43.4475 10.0021 45.4316C9.77878 47.4157 10.9498 49.2921 12.825 49.954V54.512H4.275C1.91484 54.5148 0.0027832 56.4352 0 58.8058V75.9811C0.0027832 78.3516 1.91484 80.2721 4.275 80.2749H12.825V83.1375H8.55V86H19.95V83.1375H15.675V80.2749H24.225C26.5852 80.2721 28.4972 78.3516 28.5 75.9811V58.8058C28.4972 56.4352 26.5852 54.5148 24.225 54.512H15.675V49.9547C16.8822 49.5221 17.832 48.5681 18.2627 47.3556H44.4373C44.868 48.5681 45.8178 49.5221 47.025 49.954V53.0807H38.475C36.1148 53.0835 34.2028 55.004 34.2 57.3745V81.7062C34.2028 84.0767 36.1148 85.9972 38.475 86H52.725C55.0852 85.9972 56.9972 84.0767 57 81.7062ZM25.65 75.9811C25.6493 76.7715 25.012 77.4117 24.225 77.4123H4.275C3.48805 77.4117 2.8507 76.7715 2.85 75.9811V73.1185H25.65V75.9811ZM25.65 58.8058C25.6493 58.0154 25.012 57.3752 24.225 57.3745H4.275C3.48805 57.3752 2.8507 58.0154 2.85 58.8058V70.256H25.65V58.8058ZM14.25 47.3556C13.463 47.3556 12.825 46.7147 12.825 45.9243C12.825 45.1339 13.463 44.493 14.25 44.493C15.037 44.493 15.675 45.1339 15.675 45.9243C15.6743 46.7147 15.037 47.3549 14.25 47.3556ZM49.875 45.9243C49.875 45.1339 49.237 44.493 48.45 44.493C47.6631 44.4937 47.0257 45.1339 47.025 45.9243C47.025 46.7147 47.6631 47.3556 48.45 47.3556C49.237 47.3556 49.875 46.7147 49.875 45.9243ZM37.05 57.3745C37.0507 56.5841 37.688 55.9439 38.475 55.9432H52.725C53.512 55.9439 54.1493 56.5841 54.15 57.3745V75.9811H37.05V57.3745ZM54.15 78.8436H37.05V81.7062C37.0507 82.4966 37.688 83.1368 38.475 83.1375H52.725C53.512 83.1368 54.1493 82.4966 54.15 81.7062V78.8436Z" fill="#2A4883"/>
</svg>
