<svg width="222" height="22" viewBox="0 0 222 22" fill="none" xmlns="http://www.w3.org/2000/svg">
    <path d="M40.5 1.736H34.596V0.199999H48.18V1.736H42.276V17H40.5V1.736ZM65.0573 0.199999V17H63.3053V9.248H52.7933V17H51.0173V0.199999H52.7933V7.688H63.3053V0.199999H65.0573ZM70.5407 0.199999H72.3167V17H70.5407V0.199999ZM88.6961 17.144C87.4481 17.144 86.2481 16.944 85.0961 16.544C83.9601 16.144 83.0801 15.616 82.4561 14.96L83.1521 13.592C83.7601 14.2 84.5681 14.696 85.5761 15.08C86.5841 15.448 87.6241 15.632 88.6961 15.632C90.2001 15.632 91.3281 15.36 92.0801 14.816C92.8321 14.256 93.2081 13.536 93.2081 12.656C93.2081 11.984 93.0001 11.448 92.5841 11.048C92.1841 10.648 91.6881 10.344 91.0961 10.136C90.5041 9.912 89.6801 9.672 88.6241 9.416C87.3601 9.096 86.3521 8.792 85.6001 8.504C84.8481 8.2 84.2001 7.744 83.6561 7.136C83.1281 6.528 82.8641 5.704 82.8641 4.664C82.8641 3.816 83.0881 3.048 83.5361 2.36C83.9841 1.656 84.6721 1.096 85.6001 0.68C86.5281 0.263999 87.6801 0.0559993 89.0561 0.0559993C90.0161 0.0559993 90.9521 0.191999 91.8641 0.464C92.7921 0.719999 93.5921 1.08 94.2641 1.544L93.6641 2.96C92.9601 2.496 92.2081 2.152 91.4081 1.928C90.6081 1.688 89.8241 1.568 89.0561 1.568C87.5841 1.568 86.4721 1.856 85.7201 2.432C84.9841 2.992 84.6161 3.72 84.6161 4.616C84.6161 5.288 84.8161 5.832 85.2161 6.248C85.6321 6.648 86.1441 6.96 86.7521 7.184C87.3761 7.392 88.2081 7.624 89.2481 7.88C90.4801 8.184 91.4721 8.488 92.2241 8.792C92.9921 9.08 93.6401 9.528 94.1681 10.136C94.6961 10.728 94.9601 11.536 94.9601 12.56C94.9601 13.408 94.7281 14.184 94.2641 14.888C93.8161 15.576 93.1201 16.128 92.1761 16.544C91.2321 16.944 90.0721 17.144 88.6961 17.144ZM109.462 11.216H98.9018C98.9978 12.528 99.5018 13.592 100.414 14.408C101.326 15.208 102.478 15.608 103.87 15.608C104.654 15.608 105.374 15.472 106.03 15.2C106.686 14.912 107.254 14.496 107.734 13.952L108.694 15.056C108.134 15.728 107.43 16.24 106.582 16.592C105.75 16.944 104.83 17.12 103.822 17.12C102.526 17.12 101.374 16.848 100.366 16.304C99.3738 15.744 98.5978 14.976 98.0378 14C97.4778 13.024 97.1978 11.92 97.1978 10.688C97.1978 9.456 97.4618 8.352 97.9898 7.376C98.5338 6.4 99.2698 5.64 100.198 5.096C101.142 4.552 102.198 4.28 103.366 4.28C104.534 4.28 105.582 4.552 106.51 5.096C107.438 5.64 108.166 6.4 108.694 7.376C109.222 8.336 109.486 9.44 109.486 10.688L109.462 11.216ZM103.366 5.744C102.15 5.744 101.126 6.136 100.294 6.92C99.4778 7.688 99.0138 8.696 98.9018 9.944H107.854C107.742 8.696 107.27 7.688 106.438 6.92C105.622 6.136 104.598 5.744 103.366 5.744ZM119.386 4.28C120.97 4.28 122.226 4.744 123.154 5.672C124.098 6.584 124.57 7.92 124.57 9.68V17H122.866V9.848C122.866 8.536 122.538 7.536 121.882 6.848C121.226 6.16 120.29 5.816 119.074 5.816C117.714 5.816 116.634 6.224 115.834 7.04C115.05 7.84 114.658 8.952 114.658 10.376V17H112.954V4.376H114.586V6.704C115.05 5.936 115.69 5.344 116.506 4.928C117.338 4.496 118.298 4.28 119.386 4.28ZM132.58 17.12C131.556 17.12 130.572 16.976 129.628 16.688C128.7 16.384 127.972 16.008 127.444 15.56L128.212 14.216C128.74 14.632 129.404 14.976 130.204 15.248C131.004 15.504 131.836 15.632 132.7 15.632C133.852 15.632 134.7 15.456 135.244 15.104C135.804 14.736 136.084 14.224 136.084 13.568C136.084 13.104 135.932 12.744 135.628 12.488C135.324 12.216 134.94 12.016 134.476 11.888C134.012 11.744 133.396 11.608 132.628 11.48C131.604 11.288 130.78 11.096 130.156 10.904C129.532 10.696 128.996 10.352 128.548 9.872C128.116 9.392 127.9 8.728 127.9 7.88C127.9 6.824 128.34 5.96 129.22 5.288C130.1 4.616 131.324 4.28 132.892 4.28C133.708 4.28 134.524 4.392 135.34 4.616C136.156 4.824 136.828 5.104 137.356 5.456L136.612 6.824C135.572 6.104 134.332 5.744 132.892 5.744C131.804 5.744 130.98 5.936 130.42 6.32C129.876 6.704 129.604 7.208 129.604 7.832C129.604 8.312 129.756 8.696 130.06 8.984C130.38 9.272 130.772 9.488 131.236 9.632C131.7 9.76 132.34 9.896 133.156 10.04C134.164 10.232 134.972 10.424 135.58 10.616C136.188 10.808 136.708 11.136 137.14 11.6C137.572 12.064 137.788 12.704 137.788 13.52C137.788 14.624 137.324 15.504 136.396 16.16C135.484 16.8 134.212 17.12 132.58 17.12ZM151.931 11.216H141.371C141.467 12.528 141.971 13.592 142.883 14.408C143.795 15.208 144.947 15.608 146.339 15.608C147.123 15.608 147.843 15.472 148.499 15.2C149.155 14.912 149.723 14.496 150.203 13.952L151.163 15.056C150.603 15.728 149.899 16.24 149.051 16.592C148.219 16.944 147.299 17.12 146.291 17.12C144.995 17.12 143.843 16.848 142.835 16.304C141.843 15.744 141.067 14.976 140.507 14C139.947 13.024 139.667 11.92 139.667 10.688C139.667 9.456 139.931 8.352 140.459 7.376C141.003 6.4 141.739 5.64 142.667 5.096C143.611 4.552 144.667 4.28 145.835 4.28C147.003 4.28 148.051 4.552 148.979 5.096C149.907 5.64 150.635 6.4 151.163 7.376C151.691 8.336 151.955 9.44 151.955 10.688L151.931 11.216ZM145.835 5.744C144.619 5.744 143.595 6.136 142.763 6.92C141.947 7.688 141.483 8.696 141.371 9.944H150.323C150.211 8.696 149.739 7.688 148.907 6.92C148.091 6.136 147.067 5.744 145.835 5.744ZM160.655 17.12C159.407 17.12 158.287 16.848 157.295 16.304C156.319 15.76 155.551 15 154.991 14.024C154.431 13.032 154.151 11.92 154.151 10.688C154.151 9.456 154.431 8.352 154.991 7.376C155.551 6.4 156.319 5.64 157.295 5.096C158.287 4.552 159.407 4.28 160.655 4.28C161.743 4.28 162.711 4.496 163.559 4.928C164.423 5.344 165.103 5.96 165.599 6.776L164.327 7.64C163.911 7.016 163.383 6.552 162.743 6.248C162.103 5.928 161.407 5.768 160.655 5.768C159.743 5.768 158.919 5.976 158.183 6.392C157.463 6.792 156.895 7.368 156.479 8.12C156.079 8.872 155.879 9.728 155.879 10.688C155.879 11.664 156.079 12.528 156.479 13.28C156.895 14.016 157.463 14.592 158.183 15.008C158.919 15.408 159.743 15.608 160.655 15.608C161.407 15.608 162.103 15.456 162.743 15.152C163.383 14.848 163.911 14.384 164.327 13.76L165.599 14.624C165.103 15.44 164.423 16.064 163.559 16.496C162.695 16.912 161.727 17.12 160.655 17.12ZM173.362 4.28C175.01 4.28 176.274 4.696 177.154 5.528C178.034 6.344 178.474 7.56 178.474 9.176V17H176.842V15.032C176.458 15.688 175.89 16.2 175.138 16.568C174.402 16.936 173.522 17.12 172.498 17.12C171.09 17.12 169.97 16.784 169.138 16.112C168.306 15.44 167.89 14.552 167.89 13.448C167.89 12.376 168.274 11.512 169.042 10.856C169.826 10.2 171.066 9.872 172.762 9.872H176.77V9.104C176.77 8.016 176.466 7.192 175.858 6.632C175.25 6.056 174.362 5.768 173.194 5.768C172.394 5.768 171.626 5.904 170.89 6.176C170.154 6.432 169.522 6.792 168.994 7.256L168.226 5.984C168.866 5.44 169.634 5.024 170.53 4.736C171.426 4.432 172.37 4.28 173.362 4.28ZM172.762 15.776C173.722 15.776 174.546 15.56 175.234 15.128C175.922 14.68 176.434 14.04 176.77 13.208V11.144H172.81C170.65 11.144 169.57 11.896 169.57 13.4C169.57 14.136 169.85 14.72 170.41 15.152C170.97 15.568 171.754 15.776 172.762 15.776ZM198.847 4.28C200.431 4.28 201.671 4.736 202.567 5.648C203.479 6.56 203.935 7.904 203.935 9.68V17H202.231V9.848C202.231 8.536 201.911 7.536 201.271 6.848C200.647 6.16 199.759 5.816 198.607 5.816C197.295 5.816 196.263 6.224 195.511 7.04C194.759 7.84 194.383 8.952 194.383 10.376V17H192.679V9.848C192.679 8.536 192.359 7.536 191.719 6.848C191.095 6.16 190.199 5.816 189.031 5.816C187.735 5.816 186.703 6.224 185.935 7.04C185.183 7.84 184.807 8.952 184.807 10.376V17H183.103V4.376H184.735V6.68C185.183 5.912 185.807 5.32 186.607 4.904C187.407 4.488 188.327 4.28 189.367 4.28C190.423 4.28 191.335 4.504 192.103 4.952C192.887 5.4 193.471 6.064 193.855 6.944C194.319 6.112 194.983 5.464 195.847 5C196.727 4.52 197.727 4.28 198.847 4.28ZM215.06 4.28C216.244 4.28 217.316 4.552 218.276 5.096C219.236 5.624 219.988 6.376 220.532 7.352C221.076 8.328 221.348 9.44 221.348 10.688C221.348 11.952 221.076 13.072 220.532 14.048C219.988 15.024 219.236 15.784 218.276 16.328C217.332 16.856 216.26 17.12 215.06 17.12C214.036 17.12 213.108 16.912 212.276 16.496C211.46 16.064 210.788 15.44 210.26 14.624V21.656H208.556V4.376H210.188V6.872C210.7 6.04 211.372 5.4 212.204 4.952C213.052 4.504 214.004 4.28 215.06 4.28ZM214.94 15.608C215.82 15.608 216.62 15.408 217.34 15.008C218.06 14.592 218.62 14.008 219.02 13.256C219.436 12.504 219.644 11.648 219.644 10.688C219.644 9.728 219.436 8.88 219.02 8.144C218.62 7.392 218.06 6.808 217.34 6.392C216.62 5.976 215.82 5.768 214.94 5.768C214.044 5.768 213.236 5.976 212.516 6.392C211.812 6.808 211.252 7.392 210.836 8.144C210.436 8.88 210.236 9.728 210.236 10.688C210.236 11.648 210.436 12.504 210.836 13.256C211.252 14.008 211.812 14.592 212.516 15.008C213.236 15.408 214.044 15.608 214.94 15.608Z" fill="#C4D0F0"/>
    <path fill-rule="evenodd" clip-rule="evenodd" d="M24.0708 17.3214C24.0708 17.3214 21.0708 0.321429 6.07082 11.3214C0.831112 15.1639 3.81517 16.4099 13.0708 20.8214C15.2391 21.8549 24.0708 17.3214 24.0708 17.3214Z" fill="url(#paint0_linear)"/>
    <path fill-rule="evenodd" clip-rule="evenodd" d="M11.5 4C12.6046 4 13.5 3.10457 13.5 2C13.5 0.89543 12.6046 0 11.5 0C10.3954 0 9.5 0.89543 9.5 2C9.5 3.10457 10.3954 4 11.5 4Z" fill="#3E74E2"/>
    <path fill-rule="evenodd" clip-rule="evenodd" d="M4.44518 3.08586C8.22867 1.60302 19.1943 19.8088 16.6952 20.4465C-0.804822 24.9116 -2.80482 5.92732 4.44518 3.08586Z" fill="url(#paint1_linear)"/>
    <defs>
        <linearGradient id="paint0_linear" x1="8.70126" y1="12.5818" x2="9.9968" y2="19.7609" gradientUnits="userSpaceOnUse">
            <stop stop-color="#22A271"/>
            <stop offset="1" stop-color="#178559"/>
        </linearGradient>
        <linearGradient id="paint1_linear" x1="9.79321" y1="-4.54793" x2="-5.48985" y2="12.219" gradientUnits="userSpaceOnUse">
            <stop stop-color="#FFE8AB"/>
            <stop offset="1" stop-color="#CA8726"/>
        </linearGradient>
    </defs>
</svg>