<svg width="71" height="71" viewBox="0 0 71 71" fill="none" xmlns="http://www.w3.org/2000/svg">
    <path fill-rule="evenodd" clip-rule="evenodd" d="M46.3043 9.26087H55.7212C56.4387 12.7782 59.555 15.4348 63.2826 15.4348C67.5377 15.4348 71 11.9725 71 7.71739C71 3.46228 67.5377 0 63.2826 0C59.5566 0 56.4387 2.65662 55.7212 6.17391H44.7609C43.907 6.17391 43.2174 6.8635 43.2174 7.71739V15.4348H37.0435V13.8913C37.0435 6.23119 30.8123 0 23.1522 0C16.9579 0 11.6175 4.00716 9.85173 9.85173C4.00716 11.6175 0 16.9579 0 23.1522C0 28.5219 3.06058 33.1878 7.53049 35.5C3.06058 37.8122 0 42.4781 0 47.8478C0 54.0421 4.00716 59.3825 9.85173 61.1483C11.6175 66.9928 16.9579 71 23.1522 71C30.8123 71 37.0435 64.7688 37.0435 57.1087V55.5652H43.2174V63.2826C43.2174 64.1365 43.907 64.8261 44.7609 64.8261H55.7212C56.4387 68.3434 59.555 71 63.2826 71C67.5377 71 71 67.5377 71 63.2826C71 59.0275 67.5377 55.5652 63.2826 55.5652C59.5566 55.5652 56.4387 58.2218 55.7212 61.7391H46.3043V37.0435H55.7212C56.4387 40.5608 59.555 43.2174 63.2826 43.2174C67.5377 43.2174 71 39.7551 71 35.5C71 31.2449 67.5377 27.7826 63.2826 27.7826C59.5566 27.7826 56.4387 30.4392 55.7212 33.9565H46.3043V9.26087ZM63.2826 3.08696C65.8352 3.08696 67.913 5.16477 67.913 7.71739C67.913 10.27 65.8352 12.3478 63.2826 12.3478C60.73 12.3478 58.6522 10.27 58.6522 7.71739C58.6522 5.16477 60.73 3.08696 63.2826 3.08696ZM67.913 63.2826C67.913 60.73 65.8352 58.6522 63.2826 58.6522C60.73 58.6522 58.6522 60.73 58.6522 63.2826C58.6522 65.8352 60.73 67.913 63.2826 67.913C65.8352 67.913 67.913 65.8352 67.913 63.2826ZM63.2826 30.8696C65.8352 30.8696 67.913 32.9474 67.913 35.5C67.913 38.0526 65.8352 40.1304 63.2826 40.1304C60.73 40.1304 58.6522 38.0526 58.6522 35.5C58.6522 32.9474 60.73 30.8696 63.2826 30.8696ZM12.6176 59.54C13.7556 64.4711 18.0884 67.913 23.1522 67.913C29.1083 67.913 33.9565 63.0648 33.9565 57.1087V13.8913C33.9565 7.9352 29.1083 3.08696 23.1522 3.08696C18.0884 3.08696 13.7556 6.52888 12.6176 11.46C12.439 12.2612 12.3478 13.0811 12.3478 13.8913C12.3478 19.8474 17.1961 24.6957 23.1522 24.6957C24.0061 24.6957 24.6957 25.3852 24.6957 26.2391C24.6957 27.093 24.0061 27.7826 23.1522 27.7826C15.4921 27.7826 9.26087 21.5514 9.26087 13.8913C9.26087 13.7956 9.26822 13.6998 9.27557 13.6041C9.2809 13.5348 9.28622 13.4655 9.28875 13.3962C5.55667 15.1461 3.08696 18.8767 3.08696 23.1522C3.08696 29.1083 7.9352 33.9565 13.8913 33.9565H23.1522C24.0061 33.9565 24.6957 34.6461 24.6957 35.5C24.6957 36.3539 24.0061 37.0435 23.1522 37.0435H13.8913C7.9352 37.0435 3.08696 41.8917 3.08696 47.8478C3.08696 52.1233 5.55667 55.8539 9.28875 57.6038C9.28622 57.5345 9.2809 57.4652 9.27557 57.3959C9.26822 57.3002 9.26087 57.2044 9.26087 57.1087C9.26087 49.4486 15.4921 43.2174 23.1522 43.2174C24.0061 43.2174 24.6957 43.907 24.6957 44.7609C24.6957 45.6148 24.0061 46.3043 23.1522 46.3043C17.1961 46.3043 12.3478 51.1526 12.3478 57.1087C12.3478 57.9189 12.439 58.7388 12.6176 59.54ZM43.2174 52.4783H37.0435V37.0435H43.2174V52.4783ZM37.0435 18.5217V33.9565H43.2174V18.5217H37.0435Z" fill="#2A4883"/>
</svg>
