<svg width="30" height="34" viewBox="0 0 30 34" fill="none" xmlns="http://www.w3.org/2000/svg">
    <path d="M6.16667 0C4.975 0 4 0.95625 4 2.125V31.875C4 33.0438 4.975 34 6.16667 34H27.8333C29.025 34 30 33.0438 30 31.875V8.5L21.3333 0H6.16667Z" fill="#E2E5E7"/>
    <path d="M23.25 9H30L21 0V6.75C21 7.9875 22.0125 9 23.25 9Z" fill="#B0B7BD"/>
    <path d="M30 15L24 9H30V15Z" fill="#CAD1D8"/>
    <path d="M26 27.9167C26 28.5125 25.5125 29 24.9167 29H1.08333C0.4875 29 0 28.5125 0 27.9167V17.0833C0 16.4875 0.4875 16 1.08333 16H24.9167C25.5125 16 26 16.4875 26 17.0833V27.9167Z" fill="#F15642"/>
    <path fill-rule="evenodd" clip-rule="evenodd" d="M5.59961 19.0211C5.24814 19.0211 5.02991 19.3249 5.02991 19.6034H5.03096V24.3528C5.03096 24.7242 5.32368 24.9341 5.60066 24.9341C5.90283 24.9341 6.13679 24.7242 6.13679 24.3528V23.2388H7.53745C8.6286 23.2388 9.61063 22.4961 9.61063 21.1627C9.61063 19.7554 8.6286 19.0211 7.53745 19.0211H5.59961ZM6.13679 22.1849V20.0834H7.53745C8.09981 20.0834 8.54466 20.5729 8.54466 21.1627C8.54466 21.6859 8.09981 22.1849 7.53745 22.1849H6.13679Z" fill="white"/>
    <path fill-rule="evenodd" clip-rule="evenodd" d="M11.2504 19.0211C10.8979 19.0211 10.6797 19.3249 10.6797 19.6034V24.3528C10.6797 24.7242 10.9735 24.9341 11.2504 24.9341C11.5526 24.9341 11.7876 24.7242 11.7876 24.3528V23.2388H13.1883C14.2794 23.2388 15.2615 22.4961 15.2615 21.1627C15.2615 19.7554 14.2794 19.0211 13.1883 19.0211H11.2504ZM11.7866 22.1849V20.0834H13.1872C13.7496 20.0834 14.1944 20.5729 14.1944 21.1627C14.1944 21.6859 13.7496 22.1849 13.1872 22.1849H11.7866Z" fill="white"/>
    <path d="M17.897 20.152H16.4302C15.7 20.152 15.7 19.0728 16.4302 19.0728H20.3972C21.1442 19.0728 21.1442 20.152 20.3972 20.152H19.0049V24.4118C19.0049 25.145 17.897 25.163 17.897 24.4118V20.152Z" fill="white"/>
    <path d="M23.95 29H4V30H23.95C24.5275 30 25 29.55 25 29V28C25 28.55 24.5275 29 23.95 29Z" fill="#CAD1D8"/>
</svg>
